<svg width="26" height="30" viewBox="0 0 26 30" fill="none" xmlns="http://www.w3.org/2000/svg">
<path d="M22.1924 21.2132L13 30L3.80756 21.2132C1.98949 19.4753 0.75138 17.2611 0.249785 14.8506C-0.251809 12.4401 0.00564319 9.94161 0.989587 7.67099C1.97353 5.40037 3.63977 3.45964 5.77761 2.09422C7.91544 0.728792 10.4289 0 13 0C15.5711 0 18.0846 0.728792 20.2224 2.09422C22.3602 3.45964 24.0265 5.40037 25.0104 7.67099C25.9944 9.94161 26.2518 12.4401 25.7502 14.8506C25.2486 17.2611 24.0105 19.4753 22.1924 21.2132Z" fill="black"/>
<path d="M19.8382 11.7898C18.8495 12.9151 17.0886 14.7812 17.0886 14.7812C17.0886 14.7812 17.3711 16.8255 17.5406 18.2227C17.6159 18.9354 17.0604 19.2448 16.4389 18.9635C15.2524 18.4102 13.4445 17.5475 13.0396 17.3506C12.6253 17.5381 10.8079 18.3915 9.61205 18.9447C8.98115 19.2167 8.42559 18.9166 8.4915 18.2039C8.65158 16.8067 8.94348 14.7718 8.94348 14.7718C8.94348 14.7718 7.16379 12.9151 6.16568 11.7898C5.80786 11.3772 6.04328 10.7958 6.74008 10.6927C8.17137 10.4395 10.3842 10.0363 10.3842 10.0363C10.3842 10.0363 11.5989 7.95447 12.3616 6.67916C12.7854 5.90084 13.0773 5.99462 13.1244 6.01338C13.2562 6.05089 13.4634 6.21029 13.727 6.67916C14.4803 7.95449 15.6762 10.0363 15.6762 10.0363C15.6762 10.0363 17.8608 10.4395 19.2733 10.6927C19.9606 10.7958 20.1866 11.3866 19.8382 11.7898Z" fill="white"/>
</svg>
