<svg width="85" height="85" viewBox="0 0 85 85" fill="none" xmlns="http://www.w3.org/2000/svg">
<rect width="85" height="85" rx="42.5" fill="black"/>
<path d="M59.0478 38.0905C54.375 38.0905 51.9053 42.5583 49.9214 46.1492C48.6487 48.4502 47.3334 50.8283 46.0418 50.9577C44.6351 50.6785 43.6715 49.8143 42.5597 48.8208C40.9953 47.4188 39.2337 45.8496 36.1301 45.9647C32.3451 46.1287 28.9229 48.8081 25.9581 53.9336C25.7485 54.2956 25.6914 54.726 25.7992 55.1301C25.907 55.5343 26.1709 55.8791 26.5329 56.0886C26.8949 56.2981 27.3254 56.3553 27.7295 56.2475C28.1337 56.1397 28.4784 55.8758 28.688 55.5138C31.0772 51.3819 33.6273 49.2308 36.2641 49.1157C38.084 49.0447 39.0713 49.9326 40.4528 51.169C41.7775 52.3565 43.2788 53.7002 45.6712 54.096C45.7562 54.1105 45.8421 54.1178 45.9283 54.1181C49.1171 54.1181 50.9275 50.8425 52.6781 47.6758C54.0753 45.1462 55.512 42.5504 57.4676 41.6105V59.8443H23.1541V28.4122H47.212C47.6303 28.4122 48.0314 28.246 48.3271 27.9503C48.6229 27.6545 48.7891 27.2534 48.7891 26.8351C48.7891 26.4168 48.6229 26.0157 48.3271 25.72C48.0314 25.4242 47.6303 25.2581 47.212 25.2581H21.5771C21.1588 25.2581 20.7577 25.4242 20.4619 25.72C20.1662 26.0157 20 26.4168 20 26.8351V61.423C20 61.8412 20.1662 62.2424 20.4619 62.5381C20.7577 62.8339 21.1588 63 21.5771 63H59.0478C59.466 63 59.8671 62.8339 60.1629 62.5381C60.4587 62.2424 60.6248 61.8412 60.6248 61.423V39.6676C60.6248 39.2493 60.4587 38.8482 60.1629 38.5524C59.8671 38.2567 59.466 38.0905 59.0478 38.0905Z" fill="white"/>
<path d="M25.7642 37.906C25.7642 40.762 28.0887 43.0866 30.9448 43.0866C33.8008 43.0866 36.1254 40.762 36.1254 37.906C36.1254 35.0499 33.8008 32.7269 30.9448 32.7269C28.0887 32.7269 25.7642 35.0499 25.7642 37.906ZM32.9713 37.906C32.9506 38.4296 32.7281 38.9249 32.3503 39.2881C31.9725 39.6513 31.4688 39.8541 30.9448 39.8541C30.4207 39.8541 29.917 39.6513 29.5393 39.2881C29.1615 38.9249 28.9389 38.4296 28.9183 37.906C28.9389 37.3823 29.1615 36.887 29.5393 36.5239C29.917 36.1607 30.4207 35.9579 30.9448 35.9579C31.4688 35.9579 31.9725 36.1607 32.3503 36.5239C32.7281 36.887 32.9506 37.3823 32.9713 37.906ZM64.1574 25.6018H61.1327V22.5771C61.1327 22.1588 60.9665 21.7577 60.6708 21.4619C60.375 21.1662 59.9739 21 59.5556 21C59.1374 21 58.7362 21.1662 58.4405 21.4619C58.1447 21.7577 57.9786 22.1588 57.9786 22.5771V25.6003H53.9382C53.5199 25.6003 53.1188 25.7664 52.823 26.0622C52.5273 26.3579 52.3611 26.759 52.3611 27.1773C52.3611 27.5956 52.5273 27.9967 52.823 28.2924C53.1188 28.5882 53.5199 28.7544 53.9382 28.7544H57.9786V32.7948C57.9786 33.213 58.1447 33.6141 58.4405 33.9099C58.7362 34.2057 59.1374 34.3718 59.5556 34.3718C59.9739 34.3718 60.375 34.2057 60.6708 33.9099C60.9665 33.6141 61.1327 33.213 61.1327 32.7948V28.7559H64.1574C64.5757 28.7559 64.9768 28.5898 65.2726 28.294C65.5683 27.9983 65.7345 27.5971 65.7345 27.1789C65.7345 26.7606 65.5683 26.3595 65.2726 26.0637C64.9768 25.768 64.5757 25.6018 64.1574 25.6018Z" fill="white"/>
</svg>
