<svg width="26" height="62" viewBox="0 0 26 62" fill="none" xmlns="http://www.w3.org/2000/svg">
<rect x="26" y="62" width="26" height="62" rx="13" transform="rotate(-180 26 62)" fill="black"/>
<path d="M9.46967 30.4697C9.17678 30.7626 9.17678 31.2374 9.46967 31.5303L14.2426 36.3033C14.5355 36.5962 15.0104 36.5962 15.3033 36.3033C15.5962 36.0104 15.5962 35.5355 15.3033 35.2426L11.0607 31L15.3033 26.7574C15.5962 26.4645 15.5962 25.9896 15.3033 25.6967C15.0104 25.4038 14.5355 25.4038 14.2426 25.6967L9.46967 30.4697ZM11 30.25L10 30.25L10 31.75L11 31.75L11 30.25Z" fill="white"/>
</svg>
