<svg width="108" height="302" viewBox="0 0 108 302" fill="none" xmlns="http://www.w3.org/2000/svg">
<path d="M88 3C83.8333 9.16667 85.2 11.7 88 28.5C91.5 49.5 102 44 102.5 59C103 74 92.4999 70 92.4999 93.5" stroke="black" stroke-width="10" stroke-dasharray="4 4"/>
<path d="M92.5 93.5C93.1667 97.3333 92.1 115.2 88.5 130C84 148.5 105.83 150.973 95.5 161C78.5001 177.5 96 198 88.5 198C60.5 198 62.5 233 54 233C50.6592 233 44.5 223.5 37.5 227.5C16.3167 239.605 33 253.5 27 261M26 262.196C22 268.5 4.70001 268.9 5.50001 282.5C6.50001 299.5 5.50001 298 5.50001 302" stroke="black" stroke-width="10" stroke-dasharray="4 4"/>
</svg>
