<svg width="246" height="213" viewBox="0 0 246 213" fill="none" xmlns="http://www.w3.org/2000/svg">
<path d="M235.5 4C242 9.16667 246.9 23 214.5 37C196.5 44.7778 231.5 69.5 193 94.5C165.614 112.283 164 97 156 102.5C148 108 144.917 119.468 142.5 122C132 133 136 127.5 127 133C118 138.5 110 130.5 111 147C112 163.5 123 196.5 116.5 202C110 207.5 106.5 207.5 102 207.5C97.5 207.5 71 196.5 57.5 189.5C44 182.5 43.5 178 36.5 179.5C29.5 181 21 187 0.5 186.5" stroke="#B3B3B3" stroke-width="10" stroke-dasharray="9 9"/>
</svg>
