<svg width="26" height="30" viewBox="0 0 26 30" fill="none" xmlns="http://www.w3.org/2000/svg">
<path d="M22.1925 21.2132L13 30L3.80759 21.2132C1.98952 19.4753 0.751406 17.2611 0.249811 14.8506C-0.251783 12.4402 0.00566902 9.94162 0.989613 7.671C1.97356 5.40038 3.6398 3.45965 5.77763 2.09423C7.91547 0.728805 10.4289 1.31556e-05 13 1.31556e-05C15.5712 1.31556e-05 18.0846 0.728805 20.2224 2.09423C22.3603 3.45965 24.0265 5.40038 25.0104 7.671C25.9944 9.94162 26.2518 12.4402 25.7502 14.8506C25.2486 17.2611 24.0105 19.4753 22.1925 21.2132Z" fill="#FFA800"/>
<path d="M18.4781 6H17.153V6.00625H9.29345V6H7.96837C7.68046 6 7.44642 6.21728 7.44642 6.48459V15.0837C7.44642 15.351 7.68046 15.5683 7.96837 15.5683C8.25628 15.5683 8.49032 15.351 8.49032 15.0837V6.97856H17.9544V18.3446C17.9544 18.7151 17.6362 19.0214 17.2456 19.0293H17.2321C17.0419 19.0293 16.8617 18.9605 16.7253 18.837C16.5856 18.7088 16.5081 18.54 16.5081 18.3586V17.2019C16.5081 16.9346 16.2741 16.7173 15.9862 16.7173H5.52195C5.23403 16.7173 5 16.9346 5 17.2019V18.3586C5 19.2653 5.79134 20 6.76789 20H17.2321C18.2087 20 19 19.2653 19 18.3586V6.48615C19 6.21728 18.766 6 18.4781 6Z" fill="white"/>
<path d="M10.9966 10.0451H15.9909C16.2698 10.0451 16.4938 9.81174 16.4938 9.52648C16.4938 9.24121 16.2675 9.00781 15.9909 9.00781H10.9966C10.7178 9.00781 10.4938 9.24121 10.4938 9.52648C10.4938 9.81174 10.7201 10.0451 10.9966 10.0451ZM10.9966 14.0078H15.9909C16.2698 14.0078 16.4938 13.7744 16.4938 13.4891C16.4938 13.2015 16.2675 12.9705 15.9909 12.9705H10.9966C10.7178 12.9705 10.4938 13.2039 10.4938 13.4891C10.4938 13.7744 10.7201 14.0078 10.9966 14.0078Z" fill="white"/>
</svg>
